# xmcd CD database file generated by MAGIX-FreeDB-MP3_Maker_14 v2.0beta1
# 
# Track frame offsets:
#      150
#      23333
#      59011
#      74224
#      88749
#      107660
#      123747
#      136573
#      152648
#      175233
#      193805
#      211398
#      228905
#      250854
#      269995
#      291093
# 
# Disc length: 4054 seconds
# 
# Revision: 1 
# Processed by: cddbd v1.5.2PL0 Copyright (c) Steve Scherf et al.
# Submitted via: MAGIX-FreeDB-MP3_Maker_14 v2.0beta1
# 
DISCID=f30fd410
DTITLE=Various Artist - A Further History Of Progressive Blues - CD2
DYEAR=2005
DGENRE=Blues
TTITLE0=Peter Green Splinter Band - Wild Dogs
TTITLE1=John Mayall and The Bluuesbreakers - The Mists Of Time
TTITLE2=George Thorogood and The Destroyers - Greedy Man
TTITLE3=Frankie Miller - Little Angel
TTITLE4=Snowy Whites Blues Agency - Addicted Man
TTITLE5=Rab McCulloch - Mistreatin' Me
TTITLE6=John Lee Hooker - Catfish Blues
TTITLE7=Spooky Tooth - Blues Town
TTITLE8=Jack Casady - Trust Somebody
TTITLE9=Maggie Bell - Jealousy
TTITLE10=Nazareth - Morning Dew
TTITLE11=Frankie Miller - Drunken Nights In The City
TTITLE12=Little River Band - Who Made The Moon
TTITLE13=Ian Gillian - Apathy
TTITLE14=Scott Holt - Angels In Exile
TTITLE15=Spencer Davis Group - Dust My Blues
EXTD=
EXTT0=
EXTT1=
EXTT2=
EXTT3=
EXTT4=
EXTT5=
EXTT6=
EXTT7=
EXTT8=
EXTT9=
EXTT10=
EXTT11=
EXTT12=
EXTT13=
EXTT14=
EXTT15=
PLAYORDER=
